Coordinates
version=1
nRows=16
nColumns=40
inDegrees=yes

Units are S.I. units (second, meters, Newtons, ...)
Angles are in degrees.

endheader
time	pelvis_tilt	pelvis_list	pelvis_rotation	pelvis_tx	pelvis_ty	pelvis_tz	hip_flexion_r	hip_adduction_r	hip_rotation_r	knee_angle_r	knee_angle_r_beta	ankle_angle_r	subtalar_angle_r	mtp_angle_r	hip_flexion_l	hip_adduction_l	hip_rotation_l	knee_angle_l	knee_angle_l_beta	ankle_angle_l	subtalar_angle_l	mtp_angle_l	lumbar_extension	lumbar_bending	lumbar_rotation	arm_flex_r	arm_add_r	arm_rot_r	elbow_flex_r	pro_sup_r	wrist_flex_r	wrist_dev_r	arm_flex_l	arm_add_l	arm_rot_l	elbow_flex_l	pro_sup_l	wrist_flex_l	wrist_dev_l
     45.73750000	     -7.02836376	     -3.83847451	     -8.15471573	      1.09485770	      0.92923296	      0.53814131	     17.20282763	      2.52970330	     -2.24949858	     17.21498867	     17.21498867	      9.23706865	      5.69849808	     -3.02573463	      4.06711472	    -11.95913839	    -13.10768525	     18.92682594	     18.92682594	     16.41224269	     -8.07454985	      4.08164902	     -7.71798797	      6.88460497	      0.36649817	    -14.32990278	    -15.62707248	     -7.89059258	     38.08945723	     45.48475570	      0.00000000	      0.00000000	     32.18111071	    -18.80167097	    -17.65806515	     78.38134109	     48.45590808	      0.00000000	      0.00000000
     45.75800000	     -7.19408993	     -4.13912570	     -7.44998641	      1.09526923	      0.92947474	      0.54257324	     16.59339176	      3.03652458	     -2.91421230	     16.49724882	     16.49724882	      9.34455822	      5.78274748	     -2.70197273	      4.64467129	    -12.91514711	    -12.92257503	     20.01262693	     20.01262693	     16.17413029	     -7.24590719	      3.37410650	     -7.46274881	      7.13285757	     -0.06990668	    -13.27734982	    -15.93729474	     -7.71578607	     38.55719576	     45.46857040	      0.00000000	      0.00000000	     30.31164568	    -18.15163600	    -17.30899581	     75.69903905	     48.36634295	      0.00000000	      0.00000000
     45.77850000	     -7.03363841	     -3.98578649	     -6.84529870	      1.09562125	      0.92997763	      0.54678190	     16.06522568	      3.03298907	     -3.29071959	     16.46440860	     16.46440860	      9.65484910	      5.55478027	     -2.72715686	      4.72049327	    -13.17162482	    -12.48379674	     20.68081432	     20.68081432	     15.77612216	     -6.93508916	      3.22869247	     -7.72299788	      6.69785777	      0.13790046	    -12.30144218	    -15.92121922	     -7.63343947	     38.91875827	     45.45735490	      0.00000000	      0.00000000	     28.44303683	    -16.82495260	    -16.79846069	     74.61622082	     48.29759600	      0.00000000	      0.00000000
     45.79900000	     -7.21826648	     -4.34192372	     -6.09108203	      1.09551052	      0.92968756	      0.55091599	     15.70370392	      3.59740524	     -3.95725702	     16.08545102	     16.08545102	      9.82111256	      5.45112161	     -2.52962976	      5.90364898	    -14.28485775	    -11.93946814	     22.67097265	     22.67097265	     15.45278496	     -6.44006528	      2.08372439	     -7.40617112	      6.98197429	     -0.51806662	    -10.74738792	    -16.10422805	     -7.18434509	     39.43406650	     45.42828526	      0.00000000	      0.00000000	     26.54510958	    -16.45382609	    -15.90562578	     70.84072357	     48.15321802	      0.00000000	      0.00000000
     45.81950000	     -7.12186376	     -4.40327931	     -5.43473519	      1.09539124	      0.92968146	      0.55493163	     15.33951638	      3.84610164	     -4.30153081	     16.20641710	     16.20641710	     10.25019285	      4.96892988	     -2.20441589	      6.61774672	    -14.95649977	    -11.46914961	     24.22081963	     24.22081963	     14.38057463	     -6.21978928	     -0.20629005	     -7.42058737	      6.83824860	     -0.00457314	     -9.54084953	    -16.37738370	     -5.28142639	     39.32038908	     45.35804036	      0.00000000	      0.00000000	     25.98189681	    -15.43416057	    -13.59361924	     65.11784568	     47.87659517	      0.00000000	      0.00000000
     45.84000000	     -7.06633457	     -4.51341026	     -4.70535534	      1.09506566	      0.92940910	      0.55865677	     15.05973732	      4.11523863	     -4.76760960	     16.36706098	     16.36706098	     10.58583300	      4.58472564	     -2.25242879	      7.85815222	    -15.65108410	    -10.43123258	     26.52862836	     26.52862836	     13.70437296	     -6.56990389	     -1.04432704	     -7.52669939	      6.78023473	     -0.27964402	     -7.89033594	    -16.32896664	     -5.12854128	     40.05012536	     45.33693010	      0.00000000	      0.00000000	     23.67541597	    -14.63136134	    -12.82851694	     62.82932253	     47.76412563	      0.00000000	      0.00000000
     45.86050000	     -6.83945437	     -4.58454537	     -4.01793220	      1.09464557	      0.92913194	      0.56231625	     14.74379652	      4.33925887	     -5.14525027	     16.77946148	     16.77946148	     10.99121950	      4.02301868	     -2.34220822	      9.16956554	    -16.29496946	     -9.35204860	     29.24066877	     29.24066877	     12.87753761	     -7.05573194	     -1.95491060	     -7.81354733	      6.62235976	     -0.45993071	     -5.98866626	    -16.20056620	     -4.93618961	     40.70504906	     45.31729871	      0.00000000	      0.00000000	     21.46098375	    -13.79730818	    -12.00859549	     60.21584052	     47.64334549	      0.00000000	      0.00000000
     45.88100000	     -6.76146019	     -4.50145592	     -3.21404221	      1.09385859	      0.92843981	      0.56557558	     14.87171040	      4.41648404	     -5.22336882	     17.64240679	     17.64240679	     11.59122446	      2.69033585	     -2.08971497	     10.88505013	    -16.64228718	     -7.93356138	     32.03091413	     32.03091413	     10.81903208	     -8.56752551	     -4.97835116	     -7.74171780	      6.37954824	     -0.62287855	     -3.70103954	    -16.15210609	     -3.39513751	     40.36699173	     45.28498690	      0.00000000	      0.00000000	     20.63659192	    -13.30245104	     -9.51071020	     52.92360323	     47.33156250	      0.00000000	      0.00000000
     45.90150000	     -6.54727116	     -4.51254704	     -2.43489178	      1.09300651	      0.92751365	      0.56869531	     14.91993314	      4.55171420	     -5.46925910	     18.62684660	     18.62684660	     12.23920087	      1.67440030	     -2.05125737	     12.87735972	    -17.07741803	     -6.42231470	     35.56297375	     35.56297375	      9.13443104	    -10.03589273	     -6.78860992	     -7.96837308	      6.20258610	     -0.78396942	     -1.55400711	    -15.98805408	     -2.93880454	     41.07390140	     45.26330114	      0.00000000	      0.00000000	     18.76928818	    -12.55636115	     -8.09722951	     48.80359245	     47.13844783	      0.00000000	      0.00000000
     45.92200000	     -6.30356038	     -4.60926784	     -1.63979217	      1.09201509	      0.92621473	      0.57163112	     15.01135060	      4.76048523	     -5.76057822	     19.72098199	     19.72098199	     12.85951698	      0.62041747	     -2.21103423	     15.24067265	    -17.55623338	     -4.80319581	     39.71482790	     39.71482790	      7.77044680	    -11.39432149	     -7.55818357	     -8.23495232	      6.11102390	     -0.90791410	      0.68379317	    -15.77203088	     -2.88500398	     41.93561387	     45.24743673	      0.00000000	      0.00000000	     16.42463105	    -11.69555111	     -7.29492340	     45.90016692	     47.00764749	      0.00000000	      0.00000000
     45.94250000	     -5.90607783	     -4.52358614	     -0.90218865	      1.09093675	      0.92480623	      0.57431016	     15.19276397	      4.80412309	     -5.70775477	     21.28230343	     21.28230343	     13.81019394	     -0.84835815	     -1.69332156	     17.50736823	    -17.60682364	     -3.04740487	     43.90995013	     43.90995013	      6.02265609	    -13.55234702	     -8.20990315	     -8.54443084	      5.81186701	     -0.66415932	      3.12443688	    -15.71379060	     -2.17815401	     42.25785615	     45.24651135	      0.00000000	      0.00000000	     15.59333370	    -10.85644957	     -5.04234673	     39.17899079	     46.70067276	      0.00000000	      0.00000000
     45.96300000	     -5.45063846	     -4.51253982	     -0.15787206	      1.08983748	      0.92302966	      0.57675021	     15.36730485	      4.92742914	     -5.67187259	     22.92564764	     22.92564764	     14.62228957	     -2.41102586	     -1.69024558	     19.95005093	    -17.64405004	     -1.28893702	     48.47249719	     48.47249719	      4.86309515	    -15.34478684	     -7.25634273	     -8.99709868	      5.61521581	     -0.87942695	      5.75161400	    -15.45650427	     -2.25181005	     43.47781412	     45.23406271	      0.00000000	      0.00000000	     13.30812717	    -10.18235486	     -4.07917823	     35.81639988	     46.53451121	      0.00000000	      0.00000000
     45.98350000	     -5.08321934	     -4.53215365	      0.55956833	      1.08870294	      0.92060556	      0.57894352	     15.72133587	      5.06186072	     -5.70897634	     24.70985353	     24.70985353	     15.41778056	     -3.89651062	     -1.88152789	     22.56414848	    -17.61231222	      0.44357712	     53.10854074	     53.10854074	      3.96961797	    -16.87938103	     -6.25156652	     -9.25784703	      5.44456684	     -0.94684335	      8.39104413	    -15.28705044	     -2.41811491	     44.78888644	     45.21483976	      0.00000000	      0.00000000	     10.74469904	     -9.53945882	     -3.44938022	     33.17440827	     46.40637494	      0.00000000	      0.00000000
     46.00400000	     -4.42280941	     -4.48657447	      1.23518646	      1.08771790	      0.91848691	      0.58085672	     15.75323224	      5.22129077	     -5.38373397	     26.50811792	     26.50811792	     16.39491311	     -5.72631963	     -1.33031448	     24.85715204	    -17.30389220	      2.19980388	     57.80863421	     57.80863421	      4.83230943	    -17.65562649	     -0.89743157	     -9.83191565	      5.23038708	     -0.96991314	     11.32924831	    -15.18260135	     -2.30239834	     46.12856496	     45.19444295	      0.00000000	      0.00000000	      8.87698042	     -8.98947125	     -1.95561767	     28.81795453	     46.15557448	      0.00000000	      0.00000000
     46.02450000	     -3.97785275	     -4.52836101	      1.86198613	      1.08671917	      0.91579724	      0.58244271	     16.03114997	      5.35836632	     -5.44916453	     28.35153997	     28.35153997	     17.50260402	     -6.77338679	     -0.71400334	     27.34716047	    -17.03951788	      3.83171689	     62.32400612	     62.32400612	      6.34066342	    -17.95944410	      5.21833521	    -10.09185452	      5.15004447	     -0.41539013	     13.76337218	    -15.48513820	     -2.47794288	     47.87959269	     45.18395475	      0.00000000	      0.00000000	      6.62256261	     -8.36810359	     -0.12818531	     26.23347482	     45.81258082	      0.00000000	      0.00000000
     46.04500000	     -3.44227006	     -4.57711589	      2.48424165	      1.08592315	      0.91333953	      0.58378600	     16.05795772	      5.58620302	     -5.30966603	     29.90165604	     29.90165604	     18.35988268	     -8.15725082	     -0.34096448	     29.40067210	    -16.76032085	      5.30124953	     66.10005972	     66.10005972	      7.27814386	    -18.48063332	      9.26642673	    -10.42369220	      5.08329214	     -0.21608429	     16.55723373	    -15.60723730	     -2.76640994	     49.80233232	     45.16918132	      0.00000000	      0.00000000	      3.89415854	     -7.99734125	      1.38923036	     24.64332505	     45.49717769	      0.00000000	      0.00000000
